<svg width="64" height="64" viewBox="0 0 64 64" fill="none" xmlns="http://www.w3.org/2000/svg">
<circle cx="32" cy="32" r="32" fill="#FDE1CC"/>
<path d="M20.3471 43.3852H43.653C45.8782 43.3852 47.2727 41.783 47.2727 39.7655C47.2727 39.1572 47.1245 38.549 46.7981 37.9853L35.1228 17.0974C34.4552 15.8958 33.2387 15.2727 32.0074 15.2727C30.791 15.2727 29.5448 15.8958 28.8772 17.0974L17.2169 38.0001C16.8905 38.5638 16.7273 39.1572 16.7273 39.7655C16.7273 41.783 18.1366 43.3852 20.3471 43.3852ZM32.0074 33.2232C31.2211 33.2232 30.791 32.7781 30.7613 31.977L30.5536 24.6485C30.5239 23.8474 31.147 23.254 31.9926 23.254C32.8234 23.254 33.4761 23.8622 33.4465 24.6633L33.2239 31.977C33.1943 32.7929 32.764 33.2232 32.0074 33.2232ZM32.0074 38.6973C31.147 38.6973 30.3459 38.0149 30.3459 37.0951C30.3459 36.1754 31.1321 35.493 32.0074 35.493C32.8827 35.493 33.669 36.1605 33.669 37.0951C33.669 38.0298 32.8679 38.6973 32.0074 38.6973Z" fill="#F76800"/>
</svg>
