<?xml version="1.0" encoding="utf-8"?>
<!-- Generator: Adobe Illustrator 23.0.2, SVG Export Plug-In . SVG Version: 6.00 Build 0)  -->
<svg version="1.1" id="Layer_1" xmlns="http://www.w3.org/2000/svg" x="0px" y="0px"
     viewBox="0 0 628.1 57.3" style="enable-background:new 0 0 628.1 57.3;" xml:space="preserve">
<path fill="#FFDD00" d="M37,0H1v38.1c0,10.6,8.6,19.2,19.2,19.2h38.1V0H37z"/>
    <path fill="#0F265C" d="M629.1,47.7L615,12.2c-0.6-1.6-2.2-2.6-3.9-2.6h-5L591,47.7h8.5l3-7.5h15l3.1,7.5H629.1z M614.8,33h-9.6
	l4.8-12.5L614.8,33z M576.2,47.7h8.2V9.5h-4c-2.3,0-4.2,1.8-4.2,4.1v10.9H560v-15h-8.2v38.2h8.2V31.9h16.2V47.7z M519.7,37.5
	c-2.3-2.4-3.6-5.6-3.4-8.9c-0.2-3.3,1.1-6.5,3.4-8.8c2.1-2.1,5-3.3,8-3.3c2.8,0,5.6,0.9,7.9,2.6c1.7,1.2,4,1,5.4-0.5l2.5-2.5
	c-3.7-4.7-9.4-7.3-15.4-7.1c-5.4-0.2-10.6,1.8-14.5,5.4c-3.9,3.6-5.8,8.4-5.8,14.3s1.9,10.6,5.8,14.2c4,3.6,9.3,5.6,14.8,5.4
	c6.1,0.2,11.9-2.5,15.8-7.2l-5.5-5.7c-2.4,3.4-6.3,5.4-10.5,5.3C525,40.9,522,39.7,519.7,37.5 M492.9,47.7h7.5V9.5h-8.2v25.9
	l-14.4-23.9c-0.8-1.2-2.1-2-3.6-2h-7.5v38.2h8.2V22l14.4,23.8C490,47,491.4,47.8,492.9,47.7 M448.3,47.8h8.2V9.6h-8.2V47.8z
	 M430,47.8h8.2V9.5h-4c-2.3,0-4.2,1.8-4.2,4.1l0,0v10.9h-16.3v-15h-8.2v38.2h8.2V31.9H430V47.8z M373.5,37.5
	c-2.3-2.4-3.6-5.6-3.4-8.9c-0.3-6.3,4.6-11.7,10.9-12c0.2,0,0.4,0,0.5,0c2.8,0,5.5,0.9,7.8,2.6c1.7,1.3,4,1.1,5.5-0.4l2.5-2.5
	c-3.7-4.7-9.4-7.4-15.4-7.3c-5.4-0.2-10.6,1.8-14.5,5.4s-5.8,8.4-5.8,14.3s1.9,10.6,5.8,14.2c4,3.6,9.3,5.6,14.8,5.4
	c6.1,0.2,11.9-2.5,15.7-7.2l-5.5-5.7c-2.4,3.4-6.3,5.4-10.5,5.3C378.9,40.8,375.8,39.7,373.5,37.5 M346,47.7h8.2V9.5H346V47.7z
	 M339.1,22.3c0.2-3.6-1.4-7-4.1-9.3c-2.8-2.3-6.4-3.5-11-3.5h-15.7v38.2h8.2V35.6h7.5c4.5,0,8.1-1.2,11-3.6
	C337.7,29.6,339.2,26,339.1,22.3 M330.9,22.5c0,3.8-2.8,5.7-8.4,5.7h-6V17h6C328.2,17,330.9,18.6,330.9,22.5 M282.1,42.8
	c3.8-3.7,6-8.8,5.8-14.2c0.1-5.3-2-10.4-5.8-14c-3.8-3.7-9-5.7-14.3-5.6c-5.3-0.1-10.4,1.9-14.2,5.6s-5.9,8.8-5.8,14
	c-0.1,5.3,1.9,10.5,5.8,14.2c3.8,3.7,8.9,5.7,14.2,5.5C273.2,48.5,278.3,46.5,282.1,42.8 M279.6,28.6c0.1,3.2-1,6.2-3.1,8.6
	s-5.2,3.6-8.4,3.5c-3.2,0.2-6.3-1.1-8.5-3.5c-2.1-2.4-3.2-5.4-3.1-8.6c-0.1-3.1,1-6.2,3.1-8.6c2.2-2.3,5.3-3.6,8.5-3.5
	c3.1-0.1,6.1,1.2,8.2,3.5C278.5,22.4,279.6,25.5,279.6,28.6 M219.4,37.5c-2.3-2.4-3.6-5.6-3.4-8.9c-0.2-3.3,1.1-6.5,3.4-8.8
	c2.1-2.1,5-3.3,8-3.3c2.8,0,5.6,0.9,7.9,2.6c1.7,1.2,4,1,5.4-0.5l2.5-2.5c-3.7-4.7-9.4-7.3-15.4-7.1c-5.4-0.2-10.6,1.8-14.5,5.4
	s-5.8,8.4-5.8,14.3s1.9,10.6,5.8,14.2c4,3.6,9.3,5.6,14.8,5.4c6.1,0.2,11.9-2.5,15.8-7.2l-5.5-5.7c-2.4,3.4-6.3,5.4-10.5,5.3
	C224.7,40.9,221.7,39.7,219.4,37.5 M192.6,47.7h7.5V9.5h-8.2v25.9l-14.4-23.9c-0.8-1.2-2.1-2-3.6-2h-7.5v38.2h8.2V22L189,45.7
	C189.8,47,191.1,47.7,192.6,47.7 M151.8,47.7h8.5l-14.1-35.5c-0.6-1.6-2.2-2.6-3.9-2.6h-5l-15.1,38.2h8.5l3-7.5h15L151.8,47.7z
	 M146,33h-9.6l4.8-12.5L146,33z M113.9,27.8c2.5-1.8,4-4.7,4-7.7c0-6.8-5.3-10.6-13.4-10.6H87.1v38.2h18.4c4,0,7.2-1,9.7-3
	c2.4-2,3.8-5,3.7-8.1C118.8,33,117.2,30.1,113.9,27.8 M109.6,20.9c0,2.6-2.2,3.9-6.4,3.9h-7.9V17h7.5C107.7,17,109.6,18,109.6,20.9
	 M110.5,35.8c0,3.2-2.4,4.4-7,4.4h-8.2v-8.6h8.5C108.3,31.6,110.5,33.1,110.5,35.8"/>
    <path fill="#0F265C" d="M40.1,28.6V18.1H29.6V9.5h19.1v19.1 M48.7,28.6L48.7,28.6h-8.6"/>
</svg>
